<svg width="24" height="25" viewBox="0 0 24 25" fill="none" xmlns="http://www.w3.org/2000/svg">
<g id="solar:box-linear">
<path id="Vector" d="M21 7.73877L17 9.73877M17 9.73877L16.5 9.98877L12 12.2388M17 9.73877V13.2388M17 9.73877L7.5 4.73877M12 12.2388L3 7.73877M12 12.2388V21.7388M15.578 3.62077L17.578 4.67077C19.729 5.79977 20.805 6.36377 21.403 7.37877C22 8.39277 22 9.65577 22 12.1788V12.2958C22 14.8208 22 16.0838 21.403 17.0978C20.805 18.1128 19.729 18.6778 17.578 19.8068L15.578 20.8558C13.822 21.7778 12.944 22.2388 12 22.2388C11.056 22.2388 10.178 21.7788 8.422 20.8568L6.422 19.8068C4.271 18.6778 3.195 18.1138 2.597 17.0988C2 16.0848 2 14.8218 2 12.2988V12.1818C2 9.65677 2 8.39377 2.597 7.37977C3.195 6.36477 4.271 5.79977 6.422 4.67177L8.422 3.62177C10.178 2.69977 11.056 2.23877 12 2.23877C12.944 2.23877 13.822 2.69877 15.578 3.62077Z" stroke="#362A1D" stroke-width="1.5" stroke-linecap="round"/>
</g>
</svg>
