<svg width="24" height="25" viewBox="0 0 24 25" fill="none" xmlns="http://www.w3.org/2000/svg">
<g id="vaadin:diploma-scroll" clip-path="url(#clip0_2603_328)">
<path id="Vector" d="M18.9151 12.8539C18.1621 12.7442 17.428 12.5302 16.7341 12.2179C18.8754 10.3351 21.1049 8.55505 23.4151 6.88387L23.5651 6.77887L23.6551 6.61387C24.0717 5.73614 24.185 4.74493 23.9773 3.79582C23.7696 2.84671 23.2527 1.99342 22.5076 1.36987C21.8182 0.730792 20.9413 0.330821 20.0067 0.229233C19.0721 0.127646 18.1297 0.329847 17.3191 0.805874L17.1301 1.00537C14.8853 4.1228 12.4253 7.0795 9.76811 9.85387C6.93669 12.3737 3.91912 14.6763 0.741114 16.7419L0.150114 17.1139V17.4589C-0.0730705 18.395 -0.094878 19.3678 0.0861351 20.3129C0.267148 21.2581 0.646853 22.154 1.20011 22.9414C1.62529 23.3841 2.14144 23.7294 2.71297 23.9534C3.2845 24.1774 3.89781 24.2748 4.51061 24.2389C5.03473 24.2668 5.55697 24.1565 6.02504 23.919C6.4931 23.6815 6.89057 23.3253 7.17761 22.8859C7.54511 22.4239 10.2751 18.9739 13.1851 15.8239C13.5871 16.5199 13.8991 17.3284 14.0761 18.1864C14.2654 19.7512 14.0596 21.3385 13.4776 22.8034L16.0051 19.7389L18.0001 21.2389C17.9437 19.5381 17.6488 17.8537 17.1241 16.2349C16.7558 15.5655 16.2936 14.9523 15.7516 14.4139C16.3606 14.9329 17.0581 15.3784 17.8096 15.7249C19.2196 16.2319 20.7931 16.5829 22.4236 16.7329L21.0001 14.8339L24.0001 12.2389C22.6541 12.6716 21.2484 12.8898 19.8346 12.8854C19.5106 12.8854 19.1896 12.8749 18.8716 12.8524L18.9151 12.8539ZM18.2401 2.00887C18.633 1.81565 19.0653 1.71605 19.5031 1.71787C20.2621 1.71787 20.9521 2.01187 21.4666 2.49187C21.9447 2.8746 22.2887 3.39932 22.4491 3.99031C22.6095 4.5813 22.578 5.20797 22.3591 5.77987C21.6301 6.24037 18.8401 8.35537 16.1401 10.7404C16.0629 9.98844 15.7051 9.29322 15.1381 8.79337C14.8843 8.57559 14.5876 8.41342 14.2672 8.31731C13.9469 8.2212 13.6099 8.19329 13.2781 8.23537C15.026 6.23646 16.6817 4.15879 18.2401 2.00887ZM4.05011 17.9539C4.16546 17.8737 4.30262 17.8307 4.44311 17.8309L4.50311 17.8339H4.60511C4.87361 17.9119 5.10611 18.0469 5.29661 18.2254L3.99011 19.3039C3.82823 18.9706 3.76624 18.5976 3.81161 18.2299C3.85356 18.112 3.93811 18.0141 4.04861 17.9554L4.05011 17.9539ZM6.00011 21.9889C5.85252 22.2501 5.62997 22.4611 5.36124 22.5945C5.0925 22.7279 4.78993 22.7777 4.49261 22.7374C4.08457 22.775 3.67325 22.7219 3.28814 22.5819C2.90304 22.4418 2.55368 22.2183 2.26511 21.9274C1.69265 21.0751 1.3881 20.0711 1.39061 19.0444C1.39061 18.6679 1.43111 18.3019 1.50611 17.9494L2.56511 17.2639C2.42411 17.4739 2.31911 17.7199 2.26661 17.9854C2.18283 19.0281 2.46675 20.0672 3.06911 20.9224L3.60011 21.5824L6.15011 19.4824C6.40553 20.3163 6.34902 21.2146 5.99111 22.0099L6.00011 21.9889ZM7.29011 18.3139C6.77871 17.4167 5.95725 16.7371 4.98011 16.4029C4.87361 16.3849 4.78511 16.3789 4.69511 16.3789C4.60511 16.3789 4.51661 16.3849 4.42961 16.3939C4.25517 16.3742 4.07906 16.3742 3.90461 16.3939C5.98231 14.9805 7.97943 13.4521 9.88661 11.8159C10.4836 11.9224 11.1046 12.1909 11.5831 12.6154C12.0286 13.0849 12.3031 13.7239 12.3031 14.4289L12.3001 14.5699C10.7264 16.2584 9.22503 18.013 7.80011 19.8289C7.72514 19.2869 7.54311 18.7653 7.26461 18.2944L7.29011 18.3139Z" fill="#362A1D"/>
</g>
<defs>
<clipPath id="clip0_2603_328">
<rect width="24" height="24" fill="white" transform="translate(0 0.23877)"/>
</clipPath>
</defs>
</svg>
