<svg width="30" height="31" viewBox="0 0 30 31" fill="none" xmlns="http://www.w3.org/2000/svg">
<g id="icon">
<path id="Vector" d="M19 19.2388C19 18.1338 15.866 17.2388 12 17.2388M19 19.2388C19 20.3438 15.866 21.2388 12 21.2388C8.134 21.2388 5 20.3438 5 19.2388M19 19.2388V24.1758C19 25.3148 15.866 26.2388 12 26.2388C8.134 26.2388 5 25.3158 5 24.1758V19.2388M19 19.2388C22.824 19.2388 26 18.2518 26 17.2388V7.23877M12 17.2388C8.134 17.2388 5 18.1338 5 19.2388M12 17.2388C7.582 17.2388 4 16.2518 4 15.2388V10.2388M12 8.23877C7.582 8.23877 4 9.13377 4 10.2388M4 10.2388C4 11.3438 7.582 12.2388 12 12.2388C12 13.2518 15.253 14.2388 19.077 14.2388C22.9 14.2388 26 13.2518 26 12.2388M26 7.23877C26 6.13377 22.9 5.23877 19.077 5.23877C15.253 5.23877 12.154 6.13377 12.154 7.23877M26 7.23877C26 8.34377 22.9 9.23877 19.077 9.23877C15.254 9.23877 12.154 8.34377 12.154 7.23877M12.154 7.23877V17.4048" stroke="#362A1D" stroke-width="2"/>
</g>
</svg>
