<svg width="24" height="25" viewBox="0 0 24 25" fill="none" xmlns="http://www.w3.org/2000/svg">
<g id="game-icons:owl">
<path id="Vector" d="M3.30836 1.44824L3.08008 2.29405C4.21577 2.60076 5.23727 3.02404 6.14936 3.5458C5.15205 4.28455 4.49434 5.5476 4.49434 6.9824C4.49434 7.61957 4.62419 8.22285 4.85561 8.76154C3.8328 9.71615 3.2148 11.0771 3.2148 12.8633C3.2148 16.1764 5.22372 19.0379 8.12964 20.4104L6.69011 23.7085H7.64523L8.9387 20.7453C9.0798 20.7958 9.2223 20.8432 9.36667 20.8868C9.53355 21.0162 9.70352 21.1329 9.87611 21.2378L9.26533 23.7086H10.1691L10.6821 21.6311C11.0035 21.7504 11.331 21.8291 11.6618 21.8658V23.7085H12.5379V21.8637C12.9069 21.8212 13.2715 21.7261 13.628 21.5798L14.1535 23.7085H15.0559L14.4259 21.1577C14.5853 21.0535 14.7423 20.9392 14.8963 20.8135C15.0467 20.7634 15.1958 20.7094 15.3434 20.6515L16.6774 23.7085H17.6326L16.1419 20.293C18.9182 18.879 20.8172 16.0845 20.8172 12.8632C20.8172 11.1235 20.2308 9.78731 19.2554 8.83682C19.5077 8.2792 19.6508 7.64962 19.6508 6.98245C19.6508 5.55276 18.9979 4.2937 18.0067 3.55382C18.9272 3.02254 19.9498 2.5971 21.0722 2.29401L20.8439 1.44824C19.6129 1.78068 18.4901 2.2566 17.4806 2.85449C15.8829 1.97137 13.8623 1.5343 11.8456 1.53665C9.928 1.5389 8.01447 1.9386 6.47111 2.72952C5.52297 2.19543 4.46955 1.76184 3.30845 1.44829L3.30836 1.44824ZM11.8458 2.45137C13.5542 2.4493 15.2656 2.76566 16.631 3.40518C14.5164 4.90012 12.9786 6.97706 12.0771 9.39534C11.1712 6.95146 9.60958 4.80824 7.363 3.2819C8.66645 2.7314 10.2547 2.45315 11.8459 2.45118L11.8458 2.45137ZM7.92686 5.65635C8.83623 5.65635 9.58295 6.40274 9.58295 7.31198C9.58295 8.22135 8.83623 8.96779 7.92686 8.96779C7.01748 8.96779 6.27067 8.22121 6.27067 7.31184C6.27067 6.40255 7.01748 5.65621 7.92686 5.65621V5.65635ZM16.3381 5.65635C17.2475 5.65635 17.9942 6.40274 17.9942 7.31198C17.9942 8.22135 17.2475 8.96779 16.3381 8.96779C15.4286 8.96779 14.6819 8.2214 14.6819 7.31202C14.6819 6.40274 15.4286 5.6564 16.338 5.6564L16.3381 5.65635ZM11.1641 9.4387C11.3541 9.92371 11.5168 10.4231 11.6528 10.9346L12.076 12.5267L12.4993 10.9346C12.6332 10.43 12.796 9.93357 12.9871 9.44774C13.6616 10.4541 14.7377 11.1065 15.9512 11.1065C16.6281 11.1065 17.2621 10.9027 17.8079 10.5488C17.6202 13.8699 16.9201 16.3954 15.9638 18.1152C14.8405 20.1357 13.4162 21.0343 12.048 21.0138C10.68 20.9932 9.24461 20.0448 8.11975 18.0103C7.162 16.2781 6.46225 13.7675 6.27503 10.5089C6.83458 10.8879 7.4913 11.1064 8.19395 11.1064C9.41116 11.1064 10.4901 10.4501 11.1641 9.43855V9.4387ZM5.2923 9.53934C5.31259 9.56793 5.3328 9.59652 5.3537 9.62446C5.45519 13.437 6.21573 16.3771 7.35306 18.4342C7.51809 18.7333 7.69862 19.0235 7.89391 19.3038C5.61016 17.979 4.09084 15.5869 4.09084 12.8634C4.09084 11.3622 4.52331 10.3095 5.29234 9.53938L5.2923 9.53934ZM18.8055 9.60627C19.5335 10.3701 19.9411 11.4053 19.9411 12.8634C19.9411 15.5058 18.5107 17.8361 16.3398 19.1824C16.478 18.9737 16.608 18.7598 16.7296 18.541C17.8622 16.5038 18.6199 13.5652 18.7277 9.70635C18.754 9.67321 18.7803 9.64026 18.8056 9.60627H18.8055ZM7.67289 12.3743C7.49697 12.6679 7.38714 13.0554 7.38714 13.4637C7.38714 14.4043 7.95409 15.1472 8.64433 15.1472C9.23167 15.1472 9.73905 14.6042 9.87292 13.8598C9.65298 14.0519 9.38205 14.157 9.10155 14.157C8.35248 14.157 7.72234 13.3781 7.67289 12.3743ZM16.3875 12.4904C16.338 13.4942 15.708 14.2731 14.9589 14.2731C14.6784 14.2731 14.4075 14.168 14.1874 13.9759C14.3214 14.7203 14.8287 15.2634 15.416 15.2634C16.1063 15.2634 16.6446 14.5204 16.6446 13.5798C16.6446 13.1715 16.5634 12.784 16.3875 12.4904ZM13.1658 13.8484C13.0013 14.4622 12.4952 14.935 12.016 14.935C11.548 14.935 11.0499 14.4636 10.8936 13.88C10.8555 14.0392 10.8115 14.2095 10.8115 14.386C10.8115 15.2872 11.3548 15.999 12.0161 15.999C12.6774 15.999 13.2206 15.2872 13.2206 14.386C13.2206 14.1992 13.2085 14.0157 13.1659 13.8484H13.1658V13.8484ZM14.8083 16.9753C14.6473 17.7511 14.1423 18.3352 13.5216 18.3352C13.1353 18.3352 12.7832 18.1196 12.5361 17.7659C12.5707 18.6249 13.1016 19.3157 13.7406 19.3157C14.4019 19.3157 14.9451 18.5721 14.9451 17.671C14.9451 17.4176 14.884 17.1893 14.8082 16.9752L14.8083 16.9753ZM9.38786 17.0384C9.3272 17.2338 9.30573 17.4457 9.30573 17.6711C9.30573 18.5722 9.84901 19.3157 10.5103 19.3157C11.1493 19.3157 11.6529 18.6249 11.6875 17.7659C11.4403 18.1195 11.0882 18.3352 10.7019 18.3352C10.0965 18.3352 9.56219 17.7851 9.38791 17.0384L9.38786 17.0384Z" fill="#362A1D"/>
</g>
</svg>
